<!-- Generator: Adobe Illustrator 24.0.1, SVG Export Plug-In  -->
<svg version="1.1" xmlns="http://www.w3.org/2000/svg" xmlns:xlink="http://www.w3.org/1999/xlink" x="0px" y="0px" width="100px"
	 height="75px" viewBox="0 0 100 75" style="enable-background:new 0 0 100 75;" xml:space="preserve">
<style type="text/css">
	.st0{opacity:0.6;clip-path:url(#SVGID_2_);fill-rule:evenodd;clip-rule:evenodd;}
	.st1{opacity:0.6;clip-path:url(#SVGID_4_);fill-rule:evenodd;clip-rule:evenodd;}
</style>
<defs>
</defs>
<g>
	<defs>
		<rect id="SVGID_1_" width="100" height="75"/>
	</defs>
	<clipPath id="SVGID_2_">
		<use xlink:href="#SVGID_1_"  style="overflow:visible;"/>
	</clipPath>
	<path class="st0" d="M94.9,41.1c-0.2,11.4,6.1,22.9-8.3,25C69.1,68.6,64,74,49.4,72.6C35.1,71.1,36,66,22,64c-9.9-1.4-16-4.6-16-17
		c0-10-6.6-19.3-0.7-26.9C10,14,17.3,12.6,24,12c11-1,12-6,27-7c13-0.9,16.9,0.8,29,6c7,3,12.4-0.3,17,7C102,26,95,31,94.9,41.1z"/>
</g>
</svg>
