<?xml version="1.0" encoding="utf-8"?>
<!-- Generator: Adobe Illustrator 24.0.1, SVG Export Plug-In . SVG Version: 6.00 Build 0)  -->
<svg version="1.1" xmlns="http://www.w3.org/2000/svg" xmlns:xlink="http://www.w3.org/1999/xlink" x="0px" y="0px"
	 viewBox="0 0 100 75" style="enable-background:new 0 0 100 75;" xml:space="preserve">
<style type="text/css">
	.st0{display:none;}
	.st8{opacity:0.6;fill-rule:evenodd;clip-rule:evenodd;}
</style>
<g id="svg">
	<path class="st8" d="M99.9,48.1c-2.1,11.7-7.6,10.3-22.3,17c-6.6,3-11.2,6.8-23.2,6.5C36.5,71.1,34.7,66,23.8,60.1
		C12.6,54,1,53.4,0.1,39.4c-0.6-9,3.2-10.8,8.2-16.3c3.5-3.8,9.5-2.5,13.8-6.8c7.7-7.6,10.2-7.6,23.6-6.9C57.2,10,67.3-0.1,79.9,5.8
		c9.8,4.5,8.8,11.7,12.3,21.1C94,31.7,101.1,41.1,99.9,48.1z"/>
</g>
<g id="asset">
</g>
<g id="component">
</g>
</svg>
