<!-- Generator: Adobe Illustrator 24.0.1, SVG Export Plug-In  -->
<svg version="1.1" xmlns="http://www.w3.org/2000/svg" xmlns:xlink="http://www.w3.org/1999/xlink" x="0px" y="0px" width="100px"
	 height="67.6px" viewBox="0 0 100 67.6" style="enable-background:new 0 0 100 67.6;" xml:space="preserve">
<style type="text/css">
	.st0{fill-rule:evenodd;clip-rule:evenodd;}
</style>
<defs>
</defs>
<path class="st0" d="M99.9,44.1c-2.1,11.7-7.6,10.3-22.3,17c-6.6,3-11.2,6.8-23.2,6.5c-17.8-0.4-19.7-5.5-30.5-11.4
	C12.6,50,1,49.4,0.1,35.5c-0.6-9,3.2-10.8,8.2-16.3c3.5-3.8,9.5-2.5,13.8-6.8c7.7-7.6,10.2-7.6,23.6-6.9C57.2,6,67.3-4,79.9,1.8
	c9.8,4.5,8.8,11.7,12.3,21.1C94,27.8,101.1,37.2,99.9,44.1z"/>
</svg>
