<!-- Generator: Adobe Illustrator 24.0.1, SVG Export Plug-In  -->
<svg version="1.1" xmlns="http://www.w3.org/2000/svg" xmlns:xlink="http://www.w3.org/1999/xlink" x="0px" y="0px" width="100px"
	 height="75px" viewBox="0 0 100 75" style="enable-background:new 0 0 100 75;" xml:space="preserve">
<style type="text/css">
	.st0{opacity:0.6;clip-path:url(#SVGID_2_);fill-rule:evenodd;clip-rule:evenodd;}
	.st1{opacity:0.6;clip-path:url(#SVGID_4_);fill-rule:evenodd;clip-rule:evenodd;}
</style>
<defs>
</defs>
<g>
	<defs>
		<rect id="SVGID_1_" width="100" height="75"/>
	</defs>
	<clipPath id="SVGID_2_">
		<use xlink:href="#SVGID_1_"  style="overflow:visible;"/>
	</clipPath>
	<path class="st0" d="M94,55c-1.7,9.9-12,12.4-20,13c-13,1-13.3,3.4-24,1c-9-2-5.4-5-21-5C18,64,5,61,5,50c0-11-2.4-10-2.7-19.9
		C2,20,11,14,23,14c13,0,17.3-4.8,28-8c17-5,19.2,3.5,33,5c9,1,14.7,7.5,11.2,19.9C93,39,95,49,94,55z"/>
</g>
</svg>
