<svg xmlns="http://www.w3.org/2000/svg" viewBox="0 0 551 362"><title>policy-skip</title><g id="" data-name=""><g id="" data-name=""><path d="M520.49,184v65.87A60.15,60.15,0,0,1,460.35,310H90.67a60.14,60.14,0,0,1-60.14-60.14V184A53,53,0,0,1,61.24,83.66c25.49,4,44.76,26.57,44.76,53.13v78.65A15.56,15.56,0,0,0,121.56,231h308.2a15.56,15.56,0,0,0,15.56-15.56V136H445a53,53,0,0,1,44.76-52.35,54.14,54.14,0,0,1,12.32-.5A53,53,0,0,1,520.49,184Zm-89-51.32.29,72.19A14.14,14.14,0,0,1,417.64,219H282.27V11.46A11.46,11.46,0,0,1,293.73,0H427.44a44.72,44.72,0,0,1,44.72,44.72L472.65,74C445.25,83,431.49,108.62,431.49,132.67ZM267.73,11.46V219H133.65a14.14,14.14,0,0,1-14.14-14.14V133.39c0-24.14-17.52-52.79-40.68-56.46V44.72A44.73,44.73,0,0,1,123.56,0h132.7A11.47,11.47,0,0,1,267.73,11.46ZM131.49,357.51l11.88-23.76A8.12,8.12,0,0,0,136.11,322H115.59a8.13,8.13,0,0,0-7.88,6.15l-5.94,23.76A8.12,8.12,0,0,0,109.65,362h14.58A8.11,8.11,0,0,0,131.49,357.51ZM419.54,362h14.58A8.12,8.12,0,0,0,442,351.91l-5.94-23.76a8.14,8.14,0,0,0-7.88-6.15H407.66a8.12,8.12,0,0,0-7.27,11.75l11.88,23.76A8.13,8.13,0,0,0,419.54,362Z"/></g></g></svg>