<svg xmlns="http://www.w3.org/2000/svg" viewBox="0 0 1401.74 828.83"><title>policy-creation</title><g id="" data-name=""><g id="" data-name=""><path d="M1319.83,303.79C1221.28,92.45,1189.75.22,979.18.22l-10-.22-542,.22C233.75.22,185.09,92.45,86.54,303.79-32.62,559.31-28.17,753.57,96.46,811.69c113.1,52.74,286.29-14.15,406.42-229A79.38,79.38,0,0,1,572.16,542h252a79.41,79.41,0,0,1,69.29,40.68c120.13,214.86,293.32,281.75,406.41,229C1424.54,753.57,1439,559.31,1319.83,303.79ZM1038.56,146.5a36,36,0,1,1-36,36A36,36,0,0,1,1038.56,146.5Zm-568,123.8a20.2,20.2,0,0,1-20.2,20.2h-32.6a20.2,20.2,0,0,0-20.2,20.2v32.6a20.2,20.2,0,0,1-20.2,20.2h-30.6a20.2,20.2,0,0,1-20.2-20.2V310.7a20.2,20.2,0,0,0-20.2-20.2h-32.6a20.2,20.2,0,0,1-20.2-20.2V239.7a20.2,20.2,0,0,1,20.2-20.2h32.6a20.2,20.2,0,0,0,20.2-20.2V166.7a20.2,20.2,0,0,1,20.2-20.2h30.6a20.2,20.2,0,0,1,20.2,20.2v32.6a20.2,20.2,0,0,0,20.2,20.2h32.6a20.2,20.2,0,0,1,20.2,20.2Zm66.65,203.87a53.34,53.34,0,1,1,53.33-53.33A53.34,53.34,0,0,1,537.21,474.17Zm338.32,0a53.34,53.34,0,1,1,53.34-53.33A53.33,53.33,0,0,1,875.53,474.17Zm91-182.67a36,36,0,1,1,36-36A36,36,0,0,1,966.56,291.5Zm72,72a36,36,0,1,1,36-36A36,36,0,0,1,1038.56,363.5Zm72-72a36,36,0,1,1,36-36A36,36,0,0,1,1110.56,291.5Z"/></g></g></svg>