<svg xmlns="http://www.w3.org/2000/svg" viewBox="0 0 1840 1188"><title>policy-quality</title><g id="" data-name=""><g id="" data-name=""><path d="M938.69,136.58l172.78,295a29.62,29.62,0,0,1-25.57,44.59H757.78a29.62,29.62,0,0,1-25.6-44.53L904,136.62A20.06,20.06,0,0,1,938.69,136.58Zm426.77,14.17L1201.84,431.67a29.62,29.62,0,0,0,25.6,44.53h334a26.26,26.26,0,0,0,22.66-39.53l-167.48-286A29.61,29.61,0,0,0,1365.46,150.75ZM700.31,415.54,860.54,138.67a22.14,22.14,0,0,0-19.16-33.23H539.88a29.63,29.63,0,0,0-25.67,44.4L667.08,415.5A19.19,19.19,0,0,0,700.31,415.54Zm473.88,0L1327.91,149.9a29.62,29.62,0,0,0-25.63-44.46H1000.82a22.14,22.14,0,0,0-19.19,33.18L1141,415.5A19.19,19.19,0,0,0,1174.19,415.54ZM419.93,150.69,255.41,431.61A29.62,29.62,0,0,0,281,476.2H609.1a29.62,29.62,0,0,0,25.6-44.53L471.08,150.75A29.61,29.61,0,0,0,419.93,150.69ZM926.56,1180.45l194.49-633.71a29,29,0,0,0-27.76-37.56H740.47A29,29,0,0,0,712.7,546.7l193.44,633.74C909.21,1190.51,923.47,1190.52,926.56,1180.45Zm59-1.4,577.22-626c15.44-16.74,3.56-43.83-19.2-43.83H1196.23a33,33,0,0,0-31.52,23.23L967.54,1168.65C964.17,1179.52,977.88,1187.42,985.6,1179.05Zm-123.21-9.85-195-636.68a33,33,0,0,0-31.56-23.34H291.12c-25.85,0-39.3,30.79-21.73,49.75l575,620.65C852.05,1187.91,865.71,1180.05,862.39,1169.2ZM1827.25,156.5A146.25,146.25,0,0,1,1681,10.25c0-3.5-4.74-10.25-11.25-10.25h0c-6.51,0-11.25,6.75-11.25,10.25A146.25,146.25,0,0,1,1512.25,156.5c-1.74,0-9.25,5-9.25,11.25h0c0,6.28,7.51,11.25,9.25,11.25A146.25,146.25,0,0,1,1658.5,325.25c0,1.46,5.2,8.75,11.75,8.75h0c6.55,0,11.75-7.29,11.75-8.75A146.25,146.25,0,0,1,1828.25,179c3.65,0,11.75-4.77,11.75-11.28h0C1840,161.2,1831.18,156.5,1827.25,156.5Zm-1503,680A146.25,146.25,0,0,1,178,690.25c0-3.5-4.74-10.25-11.25-10.25h0c-6.51,0-11.25,6.75-11.25,10.25A146.25,146.25,0,0,1,9.25,836.5c-1.74,0-9.25,5-9.25,11.25H0C0,854,7.51,859,9.25,859A146.25,146.25,0,0,1,155.5,1005.25c0,1.46,5.2,8.75,11.75,8.75h0c6.55,0,11.75-7.29,11.75-8.75A146.25,146.25,0,0,1,325.25,859c3.65,0,11.75-4.77,11.75-11.28h0C337,841.2,328.18,836.5,324.25,836.5Z"/></g></g></svg>