<svg xmlns="http://www.w3.org/2000/svg" viewBox="0 0 300 300"><defs><style>.cls-1{fill-rule:evenodd;}</style></defs><title>top-logo</title><g id="レイヤー_2" data-name="レイヤー 2"><g id="asset"><path class="cls-1" d="M168.42,143.94A18.44,18.44,0,1,1,150,125.69,18.35,18.35,0,0,1,168.42,143.94ZM300,150A150,150,0,1,1,150,0,150,150,0,0,1,300,150ZM219.6,133a15.56,15.56,0,0,0-7.38-13.21L161.51,88.31a22.16,22.16,0,0,0-23.33,0L87.72,119.74a15.53,15.53,0,0,0-7.35,13.18v50c0,2.63,4.39,8.71,11.72,4.64,7.59-4.21,13.79-9,24.92-9,29,0,37.52,20.28,69.18,20.28,15.82,0,33.37-9,33.37-17.63Z"/></g></g></svg>