<svg xmlns="http://www.w3.org/2000/svg" viewBox="0 0 366 200"><defs><style>.cls-1{fill:#fff9c0;}.cls-2{fill:#f7ffd8;}</style></defs><title>top-cloud01</title><g id="レイヤー_2" data-name="レイヤー 2"><g id="レイヤー_2-2" data-name="レイヤー 2"><path class="cls-1" d="M325.13,118.66H306.06a40.78,40.78,0,0,0-40.86-40h-3C262.12,35.21,226.68,0,183,0a79.26,79.26,0,0,0-71,43.8c-1.36-.1-2.73-.17-4.12-.17a54,54,0,0,0-50.62,35H40.87A40.77,40.77,0,0,0,0,119.34H0A40.77,40.77,0,0,0,40.87,160H95.22a40.77,40.77,0,0,0,40.86,40h189A40.77,40.77,0,0,0,366,159.33h0A40.77,40.77,0,0,0,325.13,118.66Z"/><path class="cls-2" d="M183.42,200H325.13A40.77,40.77,0,0,0,366,159.33h0a40.77,40.77,0,0,0-40.87-40.67H306.06a40.78,40.78,0,0,0-40.86-40h-3C262.12,36.42,228.63,2,186.61.09h-3.19Z"/></g></g></svg>