<svg xmlns="http://www.w3.org/2000/svg" viewBox="0 0 352 184"><defs><style>.cls-1{fill:#fff9c0;}.cls-2{fill:#f7ffd8;}</style></defs><title>top-cloud02</title><g id="レイヤー_2" data-name="レイヤー 2"><g id="レイヤー_2-2" data-name="レイヤー 2"><path class="cls-1" d="M311.34,63.19H291.4a47.08,47.08,0,0,0-52.2-29.44A80.52,80.52,0,0,0,95,63.29a40.47,40.47,0,0,0-37.39,40H40.67A40.5,40.5,0,0,0,0,143.61H0A40.51,40.51,0,0,0,40.66,184l198.77,0a40.5,40.5,0,0,0,40.66-40.14h31.24A40.51,40.51,0,0,0,352,103.53h0A40.5,40.5,0,0,0,311.34,63.19Z"/><path class="cls-2" d="M311.34,63.19H291.4a47.08,47.08,0,0,0-52.2-29.44A80.36,80.36,0,0,0,176.13,0V183.92h65.81a40.47,40.47,0,0,0,38.15-40.06h31.24A40.51,40.51,0,0,0,352,103.53h0A40.5,40.5,0,0,0,311.34,63.19Z"/></g></g></svg>