<svg id="svg" xmlns="http://www.w3.org/2000/svg" xmlns:xlink="http://www.w3.org/1999/xlink" viewBox="0 0 100 75"><defs><clipPath id="clip-path"><rect x="120" y="-100" width="375" height="667" style="fill:none"/></clipPath></defs><title>top-clippath</title><g style="clip-path:url(#clip-path)"><path d="M138-136.87C89.22-89.54,51.11,17.94,121,58.87c59.65,34.94,88.24-27.24,121.71-39.94C282.77,3.72,312.39,21.13,341-6.75c45-43.91,23.55-99-8.06-124.31C286.84-167.92,208.68-186,138-136.87Z" style="fill:#fcee21;fill-rule:evenodd"/></g><path d="M94.86,41.07C94.7,52.44,101,64,86.55,66.1,69.08,68.63,64,74,49.36,72.55,35.06,71.14,36,66,22,64,12.05,62.58,6,59.37,6,47,6,37-.59,27.73,5.28,20.12,10,14,17.32,12.61,24,12c11-1,12-6,27-7,13-.86,16.91.82,29,6,7,3,12.44-.29,17,7C102,26,95,31,94.86,41.07Z" style="fill-rule:evenodd;opacity:0.6"/></svg>