<svg xmlns="http://www.w3.org/2000/svg" viewBox="0 0 139.23 113.85"><defs><style>.cls-1{fill-rule:evenodd;}</style></defs><title>top-logo_1</title><g id="レイヤー_2" data-name="レイヤー 2"><g id="asset"><path class="cls-1" d="M131.85,34.74,81.15,3.31a22.18,22.18,0,0,0-23.34,0L7.35,34.74A15.55,15.55,0,0,0,0,47.92v50c0,2.63,4.4,8.71,11.73,4.64,7.59-4.21,13.78-9,24.91-9,29,0,37.52,20.28,69.18,20.28,15.83,0,33.38-9,33.38-17.63l0-48.27a15.54,15.54,0,0,0-7.38-13.21M69.62,77.2A18.26,18.26,0,1,1,88.06,58.94,18.36,18.36,0,0,1,69.62,77.2"/></g></g></svg>