<svg xmlns="http://www.w3.org/2000/svg" viewBox="0 0 360 242"><defs><style>.cls-1{fill:#fff9c0;}.cls-2{fill:#f7ffd8;}</style></defs><title>top-cloud03</title><g id="レイヤー_2" data-name="レイヤー 2"><g id="レイヤー_2-2" data-name="レイヤー 2"><path class="cls-1" d="M319.71,114.92h-5.35a40.29,40.29,0,0,0-38.8-39.7A75.6,75.6,0,0,0,131.76,43,49.22,49.22,0,0,0,59.93,75.17H40.3A40.31,40.31,0,0,0,0,115.49H0a40.3,40.3,0,0,0,40.29,40.32H95.87a40.29,40.29,0,0,0,40.27,39.74h44a67.68,67.68,0,0,0,128.53,0h11A40.31,40.31,0,0,0,360,155.24h0A40.3,40.3,0,0,0,319.71,114.92Z"/><path class="cls-2" d="M180.07,195.55h.1a67.72,67.72,0,0,0,60.69,46.35H248a67.74,67.74,0,0,0,60.69-46.34h11A40.31,40.31,0,0,0,360,155.24h0a40.3,40.3,0,0,0-40.29-40.32h-5.35a40.29,40.29,0,0,0-38.8-39.7A75.61,75.61,0,0,0,180.07,2.66Z"/></g></g></svg>