<svg xmlns="http://www.w3.org/2000/svg" viewBox="0 0 448 282"><defs><style>.cls-1{fill:#fff9c0;}.cls-2{fill:#f7ffd8;}</style></defs><title>top-cloud04</title><g id="レイヤー_2" data-name="レイヤー 2"><g id="レイヤー_2-2" data-name="レイヤー 2"><path class="cls-1" d="M407.18,108.46H331.67v-.27h0a40.7,40.7,0,0,0-40.82-40.6H264.24A80.76,80.76,0,0,0,118.72,34a47.91,47.91,0,0,0-8.44-.77A47.19,47.19,0,0,0,64.81,67.54h-24A40.72,40.72,0,0,0,0,108.13H0a40.71,40.71,0,0,0,40.82,40.6l73,0c.5.3,1,.57,1.51.86A40.66,40.66,0,0,0,82.59,189.4h0A40.72,40.72,0,0,0,123.41,230h51a69.2,69.2,0,0,0,134.1-.23c-.48.21,33.38-.16,34.06-.27a40.67,40.67,0,0,0,34.27-39.87h30.36A40.7,40.7,0,0,0,448,149.06h0A40.71,40.71,0,0,0,407.18,108.46Z"/><path class="cls-2" d="M407.18,108.46H331.67v-.27h0a40.7,40.7,0,0,0-40.82-40.6H264.24A80.24,80.24,0,0,0,224,10.23V279.8a69.77,69.77,0,0,0,17.4,2.2,69,69,0,0,0,67.08-52.21c-.48.21,33.38-.16,34.06-.27a40.67,40.67,0,0,0,34.27-39.87h30.36A40.7,40.7,0,0,0,448,149.06h0A40.71,40.71,0,0,0,407.18,108.46Z"/></g></g></svg>