<?xml version="1.0" encoding="UTF-8"?>
<svg width="255px" height="40px" viewBox="0 0 255 40" version="1.1" xmlns="http://www.w3.org/2000/svg" xmlns:xlink="http://www.w3.org/1999/xlink">
    <!-- Generator: Sketch 64 (93537) - https://sketch.com -->
    <title>Group</title>
    <desc>Created with Sketch.</desc>
    <g id="Symbols" stroke="none" stroke-width="1" fill="none" fill-rule="evenodd">
        <g id="logo-text-copy" fill="#0E0E0E">
            <g id="Group" transform="translate(0.000000, -0.000000)">
                <path d="M24.499998,27.1226225 C20.9153496,27.1226225 18.0095928,24.2510096 18.0095928,20.7087235 C18.0095928,17.1664375 20.9153496,14.2948245 24.499998,14.2948245 C28.0845371,14.2948245 30.9904032,17.1664375 30.9904032,20.7087235 C30.9904032,24.2510096 28.0845371,27.1226225 24.499998,27.1226225 M46.4031344,12.2074098 L28.5579359,1.16393285 C26.0457854,-0.390745538 22.8550712,-0.387721082 20.3459813,1.17149399 L2.58789864,12.2075178 C0.977402841,13.2085048 1.0658141e-14,14.9567483 1.0658141e-14,16.8368798 L1.0658141e-14,34.4045404 C1.0658141e-14,35.3278636 1.54742698,37.4629135 4.12647194,36.0356943 C6.79831661,34.5570594 8.97818072,32.8753538 12.8953341,32.8753538 C23.1084396,32.8753538 26.1001099,40 37.2415404,40 C42.812365,40 48.9876446,36.8512173 48.9876446,33.8071023 L49,16.8461692 C49.0013077,14.960961 48.0199699,13.2080727 46.4031344,12.2074098" id="logo"></path>
                <path d="M80.68,36.64 C87.92,36.64 90.52,34.32 90.52,30.36 L90.52,29.16 C90.52,23.92 87.44,22.76 79.52,22.6 C72.32,22.48 70.84,21.6 70.84,18.96 L70.84,18.32 C70.84,16.48 72.64,15.12 77.4,15.12 L83.92,15.12 L83.92,11.92 L77.12,11.92 C69.92,11.92 67.16,14.44 67.16,18.04 L67.16,19.16 C67.16,23.72 70.36,25.28 77.64,25.36 C84.68,25.44 86.84,26.08 86.84,29.36 L86.84,30.16 C86.84,32.56 85.04,33.52 80.24,33.52 L77.24,33.52 C71.32,33.52 70.24,32.92 70.24,28.64 L66.72,28.64 C66.72,34.36 67.96,36.64 76.6,36.64 L80.68,36.64 Z M100.7,36.64 L100.7,21.2 C100.7,17.8 103.42,15.44 107.5,15.44 L109.38,15.44 C113.5,15.44 116.02,17.56 116.02,21.8 L116.02,36.64 L119.5,36.64 L119.5,21.56 C119.5,15.28 116.18,11.96 109.62,11.96 L107.78,11.96 C104.94,11.96 102.38,13.08 100.7,14.88 L100.7,4.04 L97.22,4.04 L97.22,36.64 L100.7,36.64 Z M138.08,36.72 C142.32,36.72 144.64,35.44 145.96,34.08 C146.76,35.72 148.16,36.64 149.88,36.64 L151.6,36.64 L151.6,33.16 L150.64,33.16 C149.36,33.16 148.84,32.04 148.84,30.64 L148.84,19.4 C148.84,14.28 145.52,11.96 138.48,11.96 L131.48,11.96 L131.48,15.2 L138.48,15.2 C143.44,15.2 145.36,16.4 145.36,19.36 L145.36,29.76 C144.4,32.16 142.16,33.48 137.8,33.48 L135.08,33.48 C130.48,33.48 129.16,31.48 129.16,29.28 L129.16,28.4 C129.16,26.12 130.8,24.2 135.08,24.2 L141.2,24.2 L141.2,21.32 L135.2,21.32 C128.92,21.32 125.64,24.04 125.64,28.48 L125.64,29.48 C125.64,33.84 127.96,36.72 134.6,36.72 L138.08,36.72 Z M162.02,36.64 L162.02,4.04 L158.54,4.04 L158.54,36.64 L162.02,36.64 Z M181.56,36.72 C185.8,36.72 188.12,35.44 189.44,34.08 C190.24,35.72 191.64,36.64 193.36,36.64 L195.08,36.64 L195.08,33.16 L194.12,33.16 C192.84,33.16 192.32,32.04 192.32,30.64 L192.32,19.4 C192.32,14.28 189,11.96 181.96,11.96 L174.96,11.96 L174.96,15.2 L181.96,15.2 C186.92,15.2 188.84,16.4 188.84,19.36 L188.84,29.76 C187.88,32.16 185.64,33.48 181.28,33.48 L178.56,33.48 C173.96,33.48 172.64,31.48 172.64,29.28 L172.64,28.4 C172.64,26.12 174.28,24.2 178.56,24.2 L184.68,24.2 L184.68,21.32 L178.68,21.32 C172.4,21.32 169.12,24.04 169.12,28.48 L169.12,29.48 C169.12,33.84 171.44,36.72 178.08,36.72 L181.56,36.72 Z M205.26,36.64 L205.26,33.72 C207.06,35.52 209.62,36.64 212.82,36.64 L214.7,36.64 C221.22,36.64 225.3,33.08 225.3,26.88 L225.3,21.84 C225.3,15.4 221.22,12.04 214.7,12.04 L209.42,12.04 L209.42,15.48 L214.42,15.48 C218.62,15.48 221.78,17.72 221.78,22.16 L221.78,26.52 C221.78,30.8 218.82,33.24 214.42,33.24 L212.7,33.24 C208.94,33.24 205.94,31.44 205.26,27.96 L205.26,4.08 L201.78,4.08 L201.78,36.64 L205.26,36.64 Z M244.44,36.64 C250.96,36.64 255,33.4 255,27.08 L255,21.6 C255,15.16 250.64,11.96 244.44,11.96 L241.8,11.96 C235.08,11.96 231.2,15.4 231.2,21.6 L231.2,27.08 C231.2,33.4 234.96,36.64 241.8,36.64 L244.44,36.64 Z M244.08,33.24 L242.16,33.24 C237.48,33.24 234.68,31.36 234.68,26.8 L234.68,21.88 C234.68,17.48 237.16,15.44 242.16,15.44 L244.08,15.44 C248.72,15.44 251.48,17.32 251.48,21.88 L251.48,26.8 C251.48,31.44 248.76,33.24 244.08,33.24 Z" id="shalabo" fill-rule="nonzero"></path>
            </g>
        </g>
    </g>
</svg>