<?xml version="1.0" encoding="UTF-8"?>
<svg width="180px" height="147px" viewBox="0 0 180 147" version="1.1" xmlns="http://www.w3.org/2000/svg" xmlns:xlink="http://www.w3.org/1999/xlink">
    <title>Group 3</title>
    <defs>
        <polygon id="path-1" points="0.469815617 0 179.480805 0 179.480805 146.373626 0.469815617 146.373626"></polygon>
    </defs>
    <g id="Symbols" stroke="none" stroke-width="1" fill="none" fill-rule="evenodd">
        <g id="logo-big-copy" transform="translate(0.000000, -17.000000)">
            <g id="Group-3" transform="translate(0.000000, 17.000000)">
                <mask id="mask-2" fill="white">
                    <use xlink:href="#path-1"></use>
                </mask>
                <g id="Clip-2"></g>
                <path d="M89.9753029,99.2509154 C76.8795589,99.2509154 66.2639998,88.7427054 66.2639998,75.780274 C66.2639998,62.8178427 76.8795589,52.3096327 89.9753029,52.3096327 C103.070648,52.3096327 113.686606,62.8178427 113.686606,75.780274 C113.686606,88.7427054 103.070648,99.2509154 89.9753029,99.2509154 M169.993713,44.6710711 L104.800108,4.25922682 C95.6225056,-1.42987103 83.9659158,-1.41880352 74.7994939,4.28689561 L9.92414818,44.6714664 C4.04054723,48.3344185 0.469815617,54.7318373 0.469815617,61.6118788 L0.469815617,125.897934 C0.469815617,129.276688 6.12300814,137.089563 15.5449957,131.866881 C25.306007,126.456052 33.269673,120.302119 47.5801526,120.302119 C84.8915427,120.302119 95.8209684,146.373626 136.523795,146.373626 C156.875607,146.373626 179.435667,134.851158 179.435667,123.711704 L179.480795,61.6458719 C179.485582,54.7472528 175.900475,48.3328375 169.993713,44.6710711" id="Fill-1" fill="#0E0E0E" mask="url(#mask-2)"></path>
            </g>
        </g>
    </g>
</svg>