<?xml version="1.0" encoding="UTF-8"?>
<svg width="252px" height="40px" viewBox="0 0 252 40" version="1.1" xmlns="http://www.w3.org/2000/svg" xmlns:xlink="http://www.w3.org/1999/xlink">
    <title>Group</title>
    <g id="Symbols" stroke="none" stroke-width="1" fill="none" fill-rule="evenodd">
        <g id="logo-text" transform="translate(0.000000, -1.000000)" fill="#0E0E0E" fill-rule="nonzero">
            <g id="Group" transform="translate(0.000000, 1.000000)">
                <path d="M73.516,36.728 C79.94,36.728 83.328,33.252 83.328,28.94 C83.328,24.364 79.72,22.736 76.464,21.504 C73.868,20.536 71.58,19.876 71.58,18.072 C71.58,16.664 72.636,15.696 74.88,15.696 C76.684,15.696 78.4,16.532 80.16,17.808 L83.064,13.892 C81.04,12.352 78.268,10.856 74.704,10.856 C69.072,10.856 65.508,13.98 65.508,18.38 C65.508,22.516 68.984,24.408 72.108,25.596 C74.704,26.608 77.256,27.444 77.256,29.292 C77.256,30.832 76.156,31.888 73.692,31.888 C71.404,31.888 69.292,30.92 67.092,29.204 L64.144,33.252 C66.608,35.276 70.216,36.728 73.516,36.728 Z M97.924,36.112 L97.924,19.172 C99.728,17.368 101.004,16.4 103.028,16.4 C105.448,16.4 106.504,17.72 106.504,21.548 L106.504,36.112 L112.972,36.112 L112.972,20.756 C112.972,14.552 110.684,10.856 105.36,10.856 C102.016,10.856 99.596,12.616 97.616,14.464 L97.924,9.844 L97.924,1 L91.456,1 L91.456,36.112 L97.924,36.112 Z M128.888,36.728 C131.704,36.728 134.168,35.32 136.324,33.472 L136.5,33.472 L136.94,36.112 L142.22,36.112 L142.22,21.724 C142.22,14.596 139.008,10.856 132.76,10.856 C128.888,10.856 125.368,12.308 122.464,14.112 L124.796,18.38 C127.084,17.06 129.284,16.048 131.572,16.048 C134.608,16.048 135.664,17.896 135.796,20.316 C125.852,21.372 121.584,24.144 121.584,29.424 C121.584,33.604 124.488,36.728 128.888,36.728 Z M131,31.668 C129.108,31.668 127.744,30.832 127.744,28.896 C127.744,26.696 129.768,25.024 135.796,24.276 L135.796,29.248 C134.212,30.788 132.848,31.668 131,31.668 Z M158.092,36.728 C159.632,36.728 160.688,36.464 161.436,36.156 L160.644,31.36 C160.204,31.448 160.028,31.448 159.764,31.448 C159.148,31.448 158.488,30.964 158.488,29.468 L158.488,1 L152.02,1 L152.02,29.204 C152.02,33.78 153.604,36.728 158.092,36.728 Z M175.152,36.728 C177.968,36.728 180.432,35.32 182.588,33.472 L182.764,33.472 L183.204,36.112 L188.484,36.112 L188.484,21.724 C188.484,14.596 185.272,10.856 179.024,10.856 C175.152,10.856 171.632,12.308 168.728,14.112 L171.06,18.38 C173.348,17.06 175.548,16.048 177.836,16.048 C180.872,16.048 181.928,17.896 182.06,20.316 C172.116,21.372 167.848,24.144 167.848,29.424 C167.848,33.604 170.752,36.728 175.152,36.728 Z M177.264,31.668 C175.372,31.668 174.008,30.832 174.008,28.896 C174.008,26.696 176.032,25.024 182.06,24.276 L182.06,29.248 C180.476,30.788 179.112,31.668 177.264,31.668 Z M210.648,36.728 C216.06,36.728 221.12,31.844 221.12,23.352 C221.12,15.828 217.468,10.856 211.396,10.856 C208.976,10.856 206.512,12.044 204.576,13.804 L204.752,9.844 L204.752,1 L198.284,1 L198.284,36.112 L203.344,36.112 L203.916,33.516 L204.092,33.516 C206.072,35.584 208.448,36.728 210.648,36.728 Z M209.196,31.404 C207.876,31.404 206.292,30.92 204.752,29.556 L204.752,18.732 C206.424,17.016 207.92,16.18 209.592,16.18 C212.98,16.18 214.476,18.776 214.476,23.484 C214.476,28.852 212.188,31.404 209.196,31.404 Z M240.116,36.728 C246.276,36.728 251.952,31.976 251.952,23.792 C251.952,15.608 246.276,10.856 240.116,10.856 C233.956,10.856 228.28,15.608 228.28,23.792 C228.28,31.976 233.956,36.728 240.116,36.728 Z M240.116,31.448 C236.772,31.448 234.88,28.456 234.88,23.792 C234.88,19.172 236.772,16.136 240.116,16.136 C243.46,16.136 245.352,19.172 245.352,23.792 C245.352,28.456 243.46,31.448 240.116,31.448 Z" id="shalabo"></path>
                <path d="M23.5199999,26.8799998 C20.0736502,26.8799998 17.2799999,24.0862445 17.2799999,20.6399999 C17.2799999,17.1937553 20.0736502,14.3999999 23.5199999,14.3999999 C26.9662445,14.3999999 29.7599998,17.1937553 29.7599998,20.6399999 C29.7599998,24.0862445 26.9662445,26.8799998 23.5199999,26.8799998 M45.4561339,12.0120912 L27.9751222,1.14530992 C25.51424,-0.384493607 22.3886423,-0.381517542 19.9307581,1.15275008 L2.53508451,12.0121975 C0.95745589,12.9971686 0,14.7174403 0,16.5674896 L0,33.8540676 C0,34.7626176 1.51584691,36.8635067 4.04225842,35.459123 C6.65957577,34.0041462 8.79495296,32.349348 12.6321646,32.349348 C22.6368399,32.349348 25.5674558,39.3599998 36.4815107,39.3599998 C41.9386452,39.3599998 47.9878991,36.2615976 47.9878991,33.2661885 L48,16.5766304 C48.0012833,14.7215855 47.0399728,12.9967435 45.4561339,12.0120912" id="logo"></path>
            </g>
        </g>
    </g>
</svg>