<?xml version="1.0" encoding="UTF-8"?>
<svg width="20px" height="20px" viewBox="0 0 20 20" version="1.1" xmlns="http://www.w3.org/2000/svg" xmlns:xlink="http://www.w3.org/1999/xlink">
    <!-- Generator: Sketch 63.1 (92452) - https://sketch.com -->
    <title>icon_clock</title>
    <desc>Created with Sketch.</desc>
    <g id="BLOG" stroke="none" stroke-width="1" fill="none" fill-rule="evenodd">
        <g id="icon_clock" fill="#FEFEFE" fill-rule="nonzero">
            <path d="M9.990625,0.625 C4.815625,0.625 0.625,4.825 0.625,10 C0.625,15.175 4.815625,19.375 9.990625,19.375 C15.175,19.375 19.375,15.175 19.375,10 C19.375,4.825 15.175,0.625 9.990625,0.625 Z M10,17.5 C5.85625,17.5 2.5,14.14375 2.5,10 C2.5,5.85625 5.85625,2.5 10,2.5 C14.14375,2.5 17.5,5.85625 17.5,10 C17.5,14.14375 14.14375,17.5 10,17.5 Z" id="Shape"></path>
            <polygon id="Path" points="10.46875 5.3125 9.0625 5.3125 9.0625 10.9375 13.984375 13.890625 14.6875 12.7375 10.46875 10.234375"></polygon>
        </g>
    </g>
</svg>